<svg width="32" height="32" viewBox="0 0 32 32" fill="none" xmlns="http://www.w3.org/2000/svg">
<path fill-rule="evenodd" clip-rule="evenodd" d="M16 0C17.6568 0 19 1.34315 19 3V21.7573L26.8787 13.8786C28.0502 12.707 29.9497 12.707 31.1213 13.8786C32.2929 15.0501 32.2929 16.9496 31.1213 18.1212L18.1213 31.1213C17.5587 31.6839 16.7956 32 16 32C15.2043 32 14.4413 31.6839 13.8787 31.1213L0.87867 18.1212C-0.292897 16.9496 -0.292889 15.0501 0.878689 13.8786C2.05027 12.707 3.94976 12.707 5.12133 13.8786L13 21.7573V3C13 1.34315 14.3431 0 16 0Z" fill="#92CDFB"/>
</svg>
