<svg width="16" height="16" viewBox="0 0 16 16" fill="none" xmlns="http://www.w3.org/2000/svg">
<path d="M6 7.33325H4.66667V8.66659H6V7.33325ZM8.66667 7.33325H7.33333V8.66659H8.66667V7.33325ZM11.3333 7.33325H10V8.66659H11.3333V7.33325ZM12.6667 2.66659H12V1.33325H10.6667V2.66659H5.33333V1.33325H4V2.66659H3.33333C2.59333 2.66659 2.00667 3.26659 2.00667 3.99992L2 13.3333C2 14.0666 2.59333 14.6666 3.33333 14.6666H12.6667C13.4 14.6666 14 14.0666 14 13.3333V3.99992C14 3.26659 13.4 2.66659 12.6667 2.66659ZM12.6667 13.3333H3.33333V5.99992H12.6667V13.3333Z" fill="#919191"/>
</svg>
