<svg width="32" height="29" viewBox="0 0 32 29" fill="none" xmlns="http://www.w3.org/2000/svg">
<path d="M32 14.0625V6.56252L15.4511 3.32202L0 6.56252V27.1875C0 27.7125 0.412437 28.125 0.9375 28.125H31.0625C31.5876 28.125 32 27.7125 32 27.1875V19.6875H30.125V14.0625H32Z" fill="url(#paint0_linear)"/>
<path d="M32 0.9375V6.5625H0V0.9375C0 0.412437 0.412437 0 0.9375 0H3.875V0.9375C3.875 1.46244 4.28744 1.875 4.8125 1.875C5.33756 1.875 5.75 1.46244 5.75 0.9375V0H7.625V0.9375C7.625 1.46244 8.03744 1.875 8.5625 1.875C9.08756 1.875 9.5 1.46244 9.5 0.9375V0H11.375V0.9375C11.375 1.46244 11.7874 1.875 12.3125 1.875C12.8376 1.875 13.25 1.46244 13.25 0.9375V0H31.0625C31.5876 0 32 0.412437 32 0.9375Z" fill="url(#paint1_linear)"/>
<path d="M3.875 2.8125C3.875 3.33744 4.28744 3.75 4.8125 3.75C5.33756 3.75 5.75 3.33744 5.75 2.8125V0H3.875V2.8125ZM7.625 2.8125C7.625 3.33744 8.03744 3.75 8.5625 3.75C9.08756 3.75 9.5 3.33744 9.5 2.8125V0H7.625V2.8125ZM11.375 0V2.8125C11.375 3.33744 11.7874 3.75 12.3125 3.75C12.8376 3.75 13.25 3.33744 13.25 2.8125V0H11.375Z" fill="url(#paint2_linear)"/>
<path d="M31.9999 14.0625V19.6875H22.8874C21.8374 21.9375 19.5498 23.4375 16.9999 23.4375C12.3311 23.4375 6.34989 18.75 6.10614 18.5438C5.78745 18.3 5.67495 17.8874 5.8062 17.5124C5.93733 17.1188 6.29358 16.875 6.68739 16.875C9.16239 16.875 10.3061 15.4124 11.6374 13.725C12.8936 12.1312 14.2999 10.3125 16.9999 10.3125C19.5311 10.3125 21.8186 11.7937 22.8874 14.0625H31.9999Z" fill="url(#paint3_linear)"/>
<defs>
<linearGradient id="paint0_linear" x1="16" y1="28.125" x2="16" y2="3.32202" gradientUnits="userSpaceOnUse">
<stop stop-color="#58379F"/>
<stop offset="1" stop-color="#DAC4EB"/>
</linearGradient>
<linearGradient id="paint1_linear" x1="16" y1="6.5625" x2="16" y2="0" gradientUnits="userSpaceOnUse">
<stop stop-color="#DAC4EB"/>
<stop offset="0.5028" stop-color="#F0E7F6"/>
<stop offset="1" stop-color="#EAF6FF"/>
</linearGradient>
<linearGradient id="paint2_linear" x1="8.5625" y1="3.75" x2="8.5625" y2="0" gradientUnits="userSpaceOnUse">
<stop stop-color="#372D8F"/>
<stop offset="1" stop-color="#AC78D1"/>
</linearGradient>
<linearGradient id="paint3_linear" x1="18.8761" y1="23.4375" x2="18.8761" y2="10.3125" gradientUnits="userSpaceOnUse">
<stop stop-color="#ADDCFF"/>
<stop offset="0.5028" stop-color="#EAF6FF"/>
<stop offset="1" stop-color="#EAF6FF"/>
</linearGradient>
</defs>
</svg>
