<svg width="48" height="48" viewBox="0 0 48 48" fill="none" xmlns="http://www.w3.org/2000/svg">
<g clip-path="url(#clip0)">
<path d="M26.8126 48H9.93545C9.15807 48 8.52903 47.371 8.52903 46.5936V44.962C8.52903 38.9063 7.11707 32.2759 4.21636 25.0762C3.34559 22.9102 2.90332 20.6235 2.90332 18.2775C2.90332 12.4472 5.7217 6.91483 10.4436 3.48118C15.2508 -0.0115392 21.3682 -0.928998 27.2383 0.969115C34.4215 3.29713 39.2919 10.045 39.4649 17.8448L44.8598 25.9359C45.0823 26.271 45.1538 26.6872 45.0493 27.0773C44.9449 27.4673 44.6785 27.7942 44.3186 27.9741L39.4703 30.3982V40.7803C39.4703 41.5576 38.8413 42.1867 38.0639 42.1867H28.2189V46.5935C28.219 47.371 27.5899 48 26.8126 48ZM39.4704 18.2775H39.4979H39.4704Z" fill="url(#paint0_linear)"/>
<path d="M31.0318 21.0904C31.0318 16.0374 23.1343 7.09066 22.2334 6.08666C21.7004 5.49333 20.6731 5.49333 20.1402 6.08666C19.2393 7.09066 11.3418 16.0374 11.3418 21.0904C11.3418 26.0368 15.0219 30.1034 19.7804 30.7932V35.1547C19.7804 35.932 20.4094 36.5611 21.1868 36.5611C21.9642 36.5611 22.5932 35.932 22.5932 35.1547V30.7932C27.3516 30.1033 31.0318 26.0367 31.0318 21.0904Z" fill="url(#paint1_linear)"/>
</g>
<defs>
<linearGradient id="paint0_linear" x1="24" y1="48" x2="24" y2="-5.72205e-06" gradientUnits="userSpaceOnUse">
<stop stop-color="#5558FF"/>
<stop offset="1" stop-color="#00C0FF"/>
</linearGradient>
<linearGradient id="paint1_linear" x1="21.1868" y1="36.5611" x2="21.1868" y2="5.64166" gradientUnits="userSpaceOnUse">
<stop stop-color="#ADDCFF"/>
<stop offset="0.5028" stop-color="#EAF6FF"/>
<stop offset="1" stop-color="#EAF6FF"/>
</linearGradient>
<clipPath id="clip0">
<rect width="48" height="48" fill="white"/>
</clipPath>
</defs>
</svg>
